<svg width="4154" height="905" viewBox="0 0 4154 905" fill="none" xmlns="http://www.w3.org/2000/svg">
<g clip-path="url(#clip0_1_19)">
<path d="M311.603 -0.392174C315.754 -0.385274 319.905 -0.395918 324.056 -0.404114C332.151 -0.417339 340.246 -0.414624 348.341 -0.405876C354.931 -0.399054 361.521 -0.398202 368.11 -0.401447C369.526 -0.402137 369.526 -0.402137 370.97 -0.40284C372.889 -0.4038 374.807 -0.404772 376.725 -0.405758C394.645 -0.414279 412.565 -0.40453 430.484 -0.388357C445.803 -0.374959 461.121 -0.377284 476.439 -0.391113C494.301 -0.407231 512.162 -0.413453 530.023 -0.404276C531.934 -0.403321 533.845 -0.402378 535.756 -0.401447C537.166 -0.400753 537.166 -0.400753 538.604 -0.400045C545.172 -0.397473 551.74 -0.401786 558.308 -0.408886C566.332 -0.417371 574.355 -0.414876 582.379 -0.399044C586.46 -0.391253 590.54 -0.387908 594.62 -0.397991C681.743 -0.595509 758.804 31.3333 820.75 92.5625C826.248 98.0677 831.189 103.884 836 110C836.954 111.166 837.909 112.33 838.867 113.492C845.83 121.981 852.186 130.687 858 140C858.752 141.204 858.752 141.204 859.52 142.433C882.117 178.948 897.201 219.362 903 262C903.168 263.179 903.335 264.357 903.508 265.571C905.503 280.934 905.294 296.363 905.276 311.822C905.274 315.965 905.283 320.108 905.29 324.25C905.303 332.343 905.305 340.435 905.302 348.527C905.301 355.114 905.302 361.701 905.307 368.289C905.307 369.231 905.308 370.172 905.308 371.143C905.31 373.057 905.311 374.971 905.312 376.885C905.323 394.792 905.321 412.699 905.315 430.606C905.309 446.931 905.321 463.256 905.34 479.582C905.359 496.404 905.367 513.226 905.364 530.048C905.362 539.469 905.364 548.889 905.378 558.31C905.39 566.332 905.392 574.354 905.38 582.376C905.374 586.456 905.372 590.536 905.385 594.617C905.597 671.225 881.272 744.196 830 802C829.561 802.495 829.122 802.99 828.67 803.5C818.23 815.229 807.356 826.28 795 836C793.834 836.953 792.67 837.909 791.508 838.867C783.02 845.828 774.283 852.144 765 858C764.413 858.372 763.826 858.744 763.222 859.127C732.913 878.19 699.6 891.86 664.562 899.312C663.494 899.543 662.426 899.773 661.325 900.011C638.468 904.588 615.579 905.453 592.354 905.407C588.214 905.402 584.074 905.415 579.934 905.425C571.861 905.442 563.787 905.443 555.714 905.438C549.139 905.434 542.564 905.435 535.99 905.44C535.047 905.441 534.105 905.442 533.134 905.443C531.219 905.444 529.304 905.446 527.388 905.447C509.499 905.461 491.61 905.456 473.721 905.444C457.428 905.434 441.136 905.447 424.843 905.471C408.031 905.496 391.219 905.505 374.407 905.498C365.001 905.495 355.596 905.497 346.19 905.515C338.183 905.529 330.176 905.53 322.169 905.513C318.1 905.504 314.031 905.502 309.963 905.517C235.973 905.78 159.426 882.657 104.406 831.23C102.386 829.358 100.332 827.553 98.2461 825.754C87.2191 816.133 76.9311 805.592 68 794C67.1259 792.914 66.2495 791.829 65.3711 790.746C58.7159 782.496 52.6746 773.951 47 765C46.6266 764.412 46.2533 763.823 45.8686 763.217C26.7986 732.892 13.1168 699.562 5.68749 664.5C5.34186 662.885 5.34186 662.885 4.98925 661.237C0.491607 638.709 -0.451674 616.277 -0.406842 593.385C-0.402034 589.233 -0.414674 585.08 -0.424847 580.927C-0.441895 572.826 -0.442904 564.725 -0.437634 556.624C-0.433564 550.027 -0.435068 543.43 -0.440381 536.832C-0.441503 535.415 -0.441524 535.415 -0.44267 533.968C-0.444201 532.047 -0.445733 530.126 -0.447278 528.205C-0.460953 510.256 -0.455582 492.307 -0.444073 474.358C-0.434151 458.01 -0.447087 441.663 -0.47102 425.316C-0.495524 408.449 -0.504988 391.583 -0.498364 374.716C-0.494896 365.28 -0.496956 355.843 -0.51463 346.406C-0.529494 338.371 -0.529802 330.337 -0.512555 322.302C-0.504156 318.219 -0.501601 314.136 -0.517194 310.053C-0.743428 246.146 15.8488 183.653 53 131C53.6999 130.005 54.3999 129.01 55.1211 127.984C59.5391 121.818 64.1745 115.852 69 110C69.8263 108.987 70.6526 107.974 71.5039 106.93C83.2692 92.7231 96.3292 79.2138 111 68C112.084 67.129 113.166 66.2551 114.246 65.3789C122.498 58.7194 131.046 52.6765 140 47C140.588 46.6267 141.177 46.2533 141.783 45.8687C172.108 26.7986 205.438 13.1168 240.5 5.6875C241.577 5.45708 242.653 5.22666 243.763 4.98926C266.289 0.491942 288.714 -0.448691 311.603 -0.392174Z" fill="#00C474"/>
<path d="M219.458 312.823C221.351 312.804 221.351 312.804 223.282 312.784C224.649 312.776 226.016 312.769 227.383 312.762C228.079 312.758 228.776 312.754 229.494 312.749C233.184 312.729 236.874 312.714 240.564 312.705C244.343 312.694 248.122 312.659 251.9 312.62C254.835 312.593 257.769 312.585 260.703 312.582C262.095 312.577 263.486 312.565 264.877 312.547C286.759 312.27 299.625 322.079 314.735 336.634C317.445 339.29 320.14 341.96 322.83 344.637C323.848 345.647 324.866 346.657 325.885 347.667C329.175 350.932 332.461 354.202 335.746 357.473C336.888 358.609 338.029 359.745 339.171 360.881C343.918 365.607 348.664 370.334 353.406 375.065C360.159 381.802 366.92 388.53 373.693 395.246C378.484 399.997 383.264 404.759 388.038 409.527C390.879 412.364 393.723 415.196 396.578 418.019C399.259 420.67 401.928 423.332 404.588 426.004C406.021 427.437 407.466 428.858 408.911 430.278C415.106 436.533 420.998 443.339 421.625 452.5C420.86 463.471 412.687 471.028 405.31 478.305C404.221 479.398 403.133 480.492 402.046 481.586C399.111 484.535 396.16 487.469 393.206 490.399C390.104 493.482 387.015 496.577 383.923 499.671C378.731 504.863 373.529 510.045 368.321 515.221C362.318 521.188 356.329 527.168 350.348 533.156C344.572 538.938 338.787 544.712 332.998 550.481C330.545 552.926 328.095 555.374 325.646 557.824C322.757 560.714 319.86 563.597 316.957 566.474C315.899 567.525 314.843 568.578 313.791 569.634C296.518 586.952 280.453 593.3 256.132 593.413C253.945 593.411 251.758 593.404 249.57 593.391C246.27 593.375 242.972 593.391 239.672 593.41C222.353 593.428 205.935 592.4 190 585C188.946 584.519 187.891 584.038 186.805 583.543C165.785 573.134 152.38 555.087 144.125 533.5C139.9 518.23 140.672 501.972 140.665 486.293C140.664 484.234 140.66 482.175 140.654 480.117C140.636 472.9 140.628 465.683 140.629 458.467C140.631 451.794 140.609 445.122 140.578 438.45C140.552 432.672 140.541 426.894 140.542 421.116C140.543 417.687 140.537 414.258 140.516 410.828C140.425 393.286 140.555 376.378 148.562 360.313C148.901 359.619 149.24 358.925 149.589 358.21C159.65 338.502 176.987 324.016 197.762 316.59C204.994 314.289 211.851 312.891 219.458 312.823Z" fill="#FEFEFE"/>
<path d="M402.949 140.741C404.16 140.738 405.37 140.734 406.616 140.731C409.889 140.723 413.162 140.725 416.434 140.731C419.888 140.736 423.341 140.732 426.794 140.729C432.588 140.725 438.381 140.73 444.175 140.739C450.839 140.75 457.504 140.747 464.168 140.736C469.928 140.726 475.688 140.725 481.448 140.73C484.872 140.734 488.295 140.734 491.719 140.727C495.539 140.722 499.359 140.73 503.18 140.741C504.844 140.735 504.844 140.735 506.542 140.729C530.945 140.859 552.673 149.725 570 167C582.728 181.275 592.001 200.004 592.177 219.35C592.19 220.589 592.203 221.828 592.216 223.104C592.224 224.446 592.232 225.787 592.238 227.129C592.242 227.813 592.246 228.498 592.251 229.203C592.271 232.829 592.286 236.456 592.295 240.082C592.306 243.792 592.341 247.5 592.38 251.209C592.407 254.093 592.415 256.977 592.418 259.861C592.426 261.882 592.452 263.902 592.479 265.923C592.42 291.455 577.26 305.855 560.363 322.83C559.353 323.848 558.343 324.866 557.333 325.885C554.068 329.175 550.798 332.461 547.527 335.746C546.391 336.888 545.255 338.029 544.119 339.171C539.393 343.918 534.666 348.664 529.935 353.406C523.198 360.159 516.47 366.92 509.754 373.693C505.003 378.484 500.241 383.264 495.473 388.038C492.636 390.879 489.804 393.723 486.981 396.578C484.33 399.259 481.668 401.928 478.996 404.588C477.563 406.021 476.142 407.466 474.722 408.911C468.467 415.106 461.661 420.998 452.5 421.625C441.491 420.856 433.91 412.63 426.603 405.234C425.5 404.137 424.397 403.041 423.293 401.945C420.316 398.988 417.356 396.014 414.399 393.037C411.288 389.91 408.165 386.796 405.043 383.68C399.804 378.445 394.575 373.2 389.351 367.948C383.332 361.897 377.297 355.862 371.253 349.836C365.417 344.015 359.592 338.183 353.771 332.346C351.305 329.872 348.835 327.403 346.362 324.937C343.443 322.026 340.534 319.105 337.632 316.176C336.573 315.11 335.51 314.047 334.443 312.987C324.946 303.548 317.817 293.971 314 281C313.659 279.86 313.318 278.72 312.967 277.545C311.651 272.211 311.694 266.945 311.699 261.477C311.695 260.376 311.691 259.276 311.686 258.143C311.68 255.818 311.68 253.493 311.684 251.168C311.687 247.671 311.664 244.174 311.639 240.676C311.588 222.858 312.567 206.455 320 190C320.345 189.166 320.691 188.332 321.047 187.473C329.941 167.59 347.487 153.915 367.125 145.691C378.67 141.5 390.764 140.697 402.949 140.741Z" fill="#FEFEFE"/>
<path d="M461.575 485.871C468.2 489.313 473.124 494.437 478.305 499.69C479.398 500.779 480.492 501.867 481.586 502.954C484.535 505.889 487.469 508.84 490.4 511.794C493.482 514.896 496.577 517.985 499.671 521.077C504.863 526.269 510.045 531.471 515.221 536.679C521.188 542.682 527.168 548.671 533.156 554.652C538.938 560.428 544.712 566.213 550.481 572.002C552.926 574.455 555.374 576.905 557.824 579.354C560.714 582.243 563.597 585.14 566.474 588.043C567.525 589.101 568.578 590.157 569.634 591.209C578.242 599.795 585.694 608.489 590 620C590.512 621.354 590.512 621.354 591.034 622.736C592.041 626.14 592.26 628.885 592.275 632.426C592.284 633.681 592.294 634.937 592.304 636.231C592.303 637.591 592.302 638.952 592.301 640.312C592.305 641.728 592.309 643.143 592.314 644.558C592.321 647.524 592.321 650.489 592.316 653.455C592.31 657.215 592.327 660.976 592.35 664.736C592.365 667.662 592.366 670.588 592.363 673.514C592.363 674.897 592.368 676.281 592.378 677.665C592.458 689.985 591.013 701.931 585.75 713.187C585.446 713.855 585.143 714.522 584.83 715.209C574.326 737.718 556.365 752.4 533.313 760.875C523.47 763.677 513.421 764.298 503.243 764.275C501.441 764.282 501.441 764.282 499.601 764.29C496.345 764.302 493.088 764.304 489.832 764.302C487.091 764.3 484.351 764.305 481.611 764.31C475.132 764.321 468.654 764.322 462.175 764.316C455.543 764.31 448.912 764.322 442.28 764.343C436.541 764.361 430.802 764.367 425.063 764.364C421.655 764.362 418.248 764.364 414.84 764.378C376.981 764.502 376.981 764.502 360 756C358.672 755.389 358.672 755.389 357.316 754.766C335.947 744.22 323.277 725.39 315.625 703.5C313.553 697.23 312.884 691.03 312.807 684.445C312.791 683.186 312.775 681.927 312.758 680.63C312.747 679.272 312.736 677.913 312.727 676.555C312.721 675.86 312.716 675.166 312.71 674.45C312.684 670.772 312.664 667.093 312.65 663.415C312.637 660.399 312.609 657.383 312.568 654.367C312.518 650.696 312.494 647.025 312.487 643.353C312.48 641.968 312.465 640.583 312.441 639.198C312.16 622.198 318.418 608.701 330.064 596.421C332.029 594.415 334.017 592.436 336.009 590.458C337.108 589.352 338.206 588.245 339.303 587.137C342.259 584.159 345.227 581.194 348.198 578.231C350.687 575.748 353.17 573.258 355.653 570.768C361.512 564.891 367.381 559.025 373.258 553.166C379.302 547.138 385.33 541.095 391.35 535.042C396.539 529.827 401.737 524.622 406.943 519.424C410.044 516.328 413.141 513.228 416.23 510.12C419.133 507.198 422.049 504.288 424.974 501.388C426.04 500.327 427.102 499.261 428.159 498.191C437.485 488.761 447.95 479.527 461.575 485.871Z" fill="#FEFEFE"/>
<path d="M640.996 312.406C642.401 312.408 643.806 312.408 645.212 312.406C648.136 312.408 651.059 312.426 653.983 312.458C657.688 312.498 661.393 312.502 665.099 312.495C667.995 312.491 670.89 312.504 673.786 312.521C675.803 312.531 677.82 312.532 679.837 312.532C691.386 312.678 702.653 314.325 713.188 319.25C713.854 319.553 714.521 319.856 715.207 320.168C737.348 330.491 751.177 347.498 760.125 369.805C762.22 375.786 763.123 381.629 763.134 387.976C763.138 389.149 763.142 390.322 763.147 391.531C763.146 392.805 763.146 394.078 763.145 395.39C763.148 396.755 763.152 398.121 763.155 399.487C763.164 403.185 763.167 406.884 763.167 410.582C763.168 412.896 763.17 415.21 763.173 417.524C763.182 425.607 763.186 433.69 763.185 441.773C763.185 449.291 763.195 456.81 763.211 464.328C763.224 470.796 763.229 477.264 763.229 483.733C763.229 487.59 763.231 491.447 763.242 495.304C763.252 498.935 763.252 502.565 763.245 506.196C763.243 508.151 763.251 510.107 763.26 512.062C763.181 534.326 753.574 554.332 738 570C715.96 589.897 689.474 593.369 660.959 593.316C657.376 593.313 653.794 593.336 650.211 593.361C647.898 593.364 645.586 593.364 643.273 593.363C642.22 593.372 641.167 593.382 640.081 593.391C609.121 593.201 590.998 569.161 570.813 548.98C569.108 547.276 567.402 545.572 565.695 543.868C559.73 537.912 553.766 531.952 547.805 525.991C542.266 520.451 536.722 514.917 531.174 509.385C526.388 504.613 521.606 499.836 516.827 495.056C513.982 492.211 511.136 489.367 508.286 486.528C505.613 483.865 502.945 481.197 500.28 478.525C499.305 477.548 498.328 476.574 497.349 475.601C484.082 462.411 484.082 462.411 483.625 452.875C483.949 441.587 492.221 434.058 499.766 426.603C500.863 425.5 501.959 424.397 503.055 423.293C506.013 420.316 508.986 417.356 511.963 414.399C515.09 411.288 518.204 408.165 521.32 405.043C526.555 399.804 531.8 394.575 537.052 389.351C543.103 383.332 549.138 377.297 555.164 371.253C560.985 365.417 566.817 359.592 572.654 353.771C575.128 351.305 577.597 348.835 580.063 346.362C582.974 343.443 585.895 340.534 588.824 337.632C589.89 336.573 590.953 335.51 592.013 334.443C606.272 320.097 620.472 312.15 640.996 312.406Z" fill="#FEFEFE"/>
<path d="M2762 192C2781.47 192 2800.94 192 2821 192C2821 323.67 2821 455.34 2821 591C2801.53 591 2782.06 591 2762 591C2761.67 581.76 2761.34 572.52 2761 563C2759.39 564.341 2757.78 565.681 2756.13 567.062C2734.91 584.301 2712.03 594.243 2685 598C2684.09 598.131 2683.17 598.263 2682.23 598.398C2660.03 600.982 2636.93 598.942 2616 591C2615.34 590.753 2614.68 590.505 2614.01 590.25C2599.38 584.623 2586.93 576.09 2575 566C2574.29 565.416 2573.59 564.832 2572.86 564.23C2568.08 560.19 2563.95 555.846 2560 551C2558.84 549.596 2558.84 549.596 2557.66 548.164C2538.58 524.569 2526.98 494.203 2526.8 463.758C2526.79 462.607 2526.79 462.607 2526.78 461.433C2526.77 459.814 2526.76 458.196 2526.76 456.577C2526.75 454.166 2526.72 451.755 2526.69 449.344C2526.43 411.691 2540.19 377.268 2566 350C2566.82 349.116 2567.64 348.231 2568.48 347.32C2588.38 326.537 2615.36 312.58 2644 309C2644.81 308.89 2645.63 308.781 2646.47 308.668C2684.7 304.35 2722.94 313.844 2753.23 337.641C2755.95 339.954 2758.48 342.478 2761 345C2761.5 269.265 2761.5 269.265 2762 192ZM2613 382C2612.24 382.666 2611.48 383.333 2610.69 384.02C2594.3 399.333 2584.98 422.289 2583.88 444.496C2583.08 471.494 2587.05 496.475 2605.56 517.375C2607.03 518.924 2608.51 520.466 2610 522C2610.54 522.612 2611.08 523.225 2611.63 523.855C2625.38 538.951 2646.98 546.347 2666.89 547.281C2693.9 548.032 2716.56 539.042 2736.41 520.568C2748.7 508.443 2756.09 493.76 2760 477C2760.23 476.096 2760.45 475.193 2760.68 474.262C2765.98 449.026 2761.13 421.545 2747.14 399.969C2743.77 395.297 2740.01 391.122 2736 387C2735.41 386.364 2734.83 385.729 2734.23 385.074C2720.12 370.138 2698.17 360.525 2677.72 359.797C2653.44 359.389 2631.52 365.708 2613 382Z" fill="#00C474"/>
<path d="M1663 341C1664.98 342.65 1666.96 344.3 1669 346C1669 336.1 1669 326.2 1669 316C1688.14 316 1707.28 316 1727 316C1727 406.75 1727 497.5 1727 591C1707.86 591 1688.72 591 1669 591C1668.67 581.43 1668.34 571.86 1668 562C1665.36 564.31 1662.72 566.62 1660 569C1630.11 593.324 1592.45 602.202 1554.36 598.496C1543.15 597.231 1532.54 595.047 1522 591C1521.34 590.747 1520.68 590.495 1519.99 590.234C1505.31 584.499 1492.91 576.347 1481 566C1479.69 564.869 1479.69 564.869 1478.34 563.715C1452.3 540.844 1435.51 506.234 1433.13 471.593C1430.83 425.37 1440.47 385.042 1472 350C1493.8 326.03 1525.61 310.415 1557.96 308.125C1596.76 306.529 1633.6 314.567 1663 341ZM1511.75 388.371C1492.58 411.217 1487.7 439.486 1490.22 468.57C1492.38 486.732 1499.35 502.964 1511 517C1511.65 517.872 1511.65 517.872 1512.32 518.762C1524.72 534.692 1545 543.216 1564.34 546.582C1591.22 549.654 1614.6 543.037 1635.83 526.301C1655.4 510.314 1665.64 488.727 1668.38 463.813C1670.53 440.227 1665.82 415.33 1650.88 396.438C1649.59 394.951 1648.3 393.471 1647 392C1646.56 391.415 1646.11 390.83 1645.66 390.227C1632.91 373.675 1611.64 363.965 1591.56 360.387C1561.32 357.101 1532.93 366.085 1511.75 388.371Z" fill="#00C474"/>
<path d="M2002.96 307.938C2037.6 306.98 2070.38 316.163 2097 339C2097.81 339.687 2098.62 340.374 2099.45 341.082C2128.65 366.56 2144.01 400.681 2147.62 438.938C2148.14 448.612 2148 458.312 2148 468C2074.74 468.33 2001.48 468.66 1926 469C1930.95 495.38 1940.12 518.145 1963 534C1982.5 546.59 2005.81 550.057 2028.56 545.813C2035.69 544.266 2042.33 541.937 2049 539C2049.72 538.693 2050.45 538.386 2051.2 538.07C2067.93 530.416 2078.6 516.85 2087 501C2097.96 501.385 2108.54 504.157 2119.19 506.563C2121.11 506.992 2123.04 507.421 2124.96 507.85C2129.64 508.893 2134.32 509.944 2139 511C2140.51 515.617 2138.73 518.644 2136.69 522.813C2136.33 523.564 2135.96 524.315 2135.59 525.089C2119.22 558.089 2091.94 580.504 2057.26 592.27C2019.63 603.661 1977.32 601.872 1942 584C1932.37 578.601 1923.4 572.16 1915 565C1914.37 564.491 1913.74 563.982 1913.09 563.457C1908.53 559.721 1904.77 555.513 1901 551C1900.3 550.198 1899.6 549.396 1898.87 548.57C1881.17 527.856 1870.5 501.082 1868 474C1867.89 472.831 1867.78 471.662 1867.67 470.457C1864.42 430.751 1872.77 390.498 1898.47 359.205C1901.82 355.309 1905.36 351.622 1909 348C1909.72 347.275 1909.72 347.275 1910.46 346.536C1934.82 322.303 1968.81 309.02 2002.96 307.938ZM1944.12 388.875C1936.23 398.197 1927 413.212 1927 426C1979.8 426 2032.6 426 2087 426C2082.69 404.455 2073.38 385.886 2055.06 372.965C2019.28 350.007 1972.86 358.479 1944.12 388.875Z" fill="#00C474"/>
<path d="M2999.69 309.688C3000.73 309.691 3000.73 309.691 3001.79 309.694C3032.05 309.844 3062.13 317.054 3087 335C3087.78 335.559 3087.78 335.559 3088.57 336.13C3103.34 346.893 3116.17 359.556 3126 375C3126.69 376.073 3127.39 377.145 3128.11 378.25C3136.34 391.752 3142.39 407.395 3145 423C3145.2 424.097 3145.4 425.194 3145.61 426.324C3148.77 446.557 3148.23 467.979 3144 488C3143.73 489.283 3143.47 490.565 3143.19 491.887C3134.78 527.049 3111.42 557.112 3081.03 576.242C3062.74 587.426 3042.33 594.602 3021 597C3020.07 597.111 3019.13 597.222 3018.17 597.336C2978.56 601.346 2937.43 592.369 2905.77 567.456C2882.43 548.272 2865.48 525.109 2857 496C2856.7 494.996 2856.41 493.992 2856.1 492.957C2848.44 464.845 2849.71 432.557 2859 405C2859.52 403.442 2859.52 403.442 2860.05 401.852C2865.35 387.103 2872.92 373.95 2883 362C2883.74 361.118 2884.48 360.237 2885.25 359.328C2905.08 336.562 2930.53 322.232 2959.44 314.313C2960.53 314.008 2960.53 314.008 2961.64 313.698C2974.15 310.42 2986.8 309.615 2999.69 309.688ZM2933 389C2932.33 389.655 2931.67 390.31 2930.98 390.984C2919.42 403.201 2911.93 421.457 2910 438C2909.89 438.924 2909.78 439.849 2909.67 440.801C2907.04 466.15 2912.11 491.86 2927.88 512.313C2944.25 531.565 2964.67 544.107 2990 547C3014.53 548.401 3038.79 543.052 3057.56 526.313C3059.05 524.888 3060.54 523.453 3062 522C3062.89 521.154 3063.77 520.309 3064.69 519.438C3065.83 518.231 3065.83 518.231 3067 517C3067.78 516.215 3067.78 516.215 3068.57 515.414C3086.17 496.709 3090.81 471.816 3090.29 447.016C3089.32 421.224 3078.02 400.308 3059.77 382.531C3041.03 365.407 3017.31 359.088 2992.39 359.868C2968.9 361.163 2949.24 372.78 2933 389Z" fill="#00C474"/>
<path d="M3793.31 309.75C3794.02 309.749 3794.74 309.748 3795.47 309.747C3806.88 309.758 3817.85 310.437 3829 313C3829.98 313.217 3829.98 313.217 3830.97 313.438C3858.82 319.766 3881.44 333.464 3902 353C3902.63 353.57 3903.27 354.14 3903.92 354.727C3913.16 363.305 3920.5 374.75 3926 386C3926.5 386.98 3927 387.959 3927.52 388.969C3944.42 423.456 3945.54 466.788 3933.72 503.02C3926.96 522.629 3916.22 538.963 3902 554C3901.34 554.699 3900.69 555.397 3900.01 556.117C3874.68 582.258 3838.18 596.986 3802 598C3800.73 598.04 3799.45 598.08 3798.14 598.121C3758.56 598.943 3719.48 586.992 3690.45 559.336C3689.43 558.349 3688.41 557.359 3687.4 556.365C3686.14 555.133 3684.84 553.932 3683.55 552.734C3667.4 537.489 3657.03 516.708 3650.81 495.688C3650.56 494.859 3650.31 494.03 3650.05 493.176C3646.38 480.254 3645.61 467.106 3645.69 453.75C3645.69 453.03 3645.69 452.31 3645.69 451.569C3645.75 440.166 3646.27 429.111 3649 418C3649.2 417.188 3649.4 416.376 3649.6 415.54C3652.65 403.564 3657.01 392.789 3663 382C3663.48 381.103 3663.96 380.206 3664.46 379.281C3681.71 348.654 3713.33 325.852 3746.6 315.661C3754.27 313.551 3762.15 312.231 3770 311C3771.81 310.708 3771.81 310.708 3773.66 310.41C3780.17 309.646 3786.76 309.756 3793.31 309.75ZM3723 393C3706.34 413.357 3700.94 439.603 3703.21 465.352C3705.6 486.664 3713.99 504.541 3729 520C3729.61 520.686 3730.22 521.372 3730.86 522.078C3744.57 536.931 3766.19 545.988 3786.18 547.124C3813.48 548.043 3836.28 540.231 3856.6 521.621C3874.64 504.231 3883.69 481.364 3884.29 456.466C3884.56 428.371 3875.83 405.579 3856.44 385C3838.81 367.83 3815.95 359.72 3791.55 359.753C3764.12 360.136 3741.21 372.888 3723 393Z" fill="#00C474"/>
<path d="M2344 325C2344.98 325.543 2345.96 326.085 2346.98 326.645C2367.94 339.061 2382.66 359.632 2389.22 382.867C2390 386 2390 386 2390 388C2378.95 390.863 2367.85 393.39 2356.67 395.72C2354.08 396.26 2351.49 396.805 2348.9 397.352C2347.25 397.698 2345.6 398.045 2343.95 398.391C2342.79 398.634 2342.79 398.634 2341.61 398.883C2336.23 400 2336.23 400 2334 400C2333.77 399.238 2333.54 398.476 2333.3 397.691C2328.6 382.812 2321.51 371.377 2307.52 363.632C2299.1 359.281 2289.49 356.388 2280 356C2278.84 355.948 2277.68 355.897 2276.49 355.844C2261.72 355.404 2246.32 357.149 2234.62 367.004C2228.14 373.677 2224.91 381.339 2224.5 390.625C2224.78 397.349 2226.96 402.499 2231.19 407.688C2232.12 408.451 2233.04 409.214 2234 410C2234.87 410.721 2234.87 410.721 2235.76 411.457C2240.26 414.84 2244.92 416.826 2250.28 418.451C2250.98 418.666 2251.68 418.881 2252.4 419.102C2259.36 421.189 2266.4 422.801 2273.51 424.308C2275.79 424.794 2278.08 425.29 2280.37 425.789C2286.85 427.202 2293.34 428.596 2299.83 429.986C2303.84 430.845 2307.85 431.715 2311.85 432.591C2313.35 432.916 2314.86 433.238 2316.36 433.555C2336.07 437.716 2354.33 443.896 2370 457C2370.99 457.722 2371.98 458.444 2373 459.188C2380.9 465.9 2386.45 475.384 2390 485C2390.31 485.825 2390.61 486.65 2390.93 487.5C2397.59 508.303 2393.99 532.403 2384.37 551.625C2377.76 562.961 2368.97 571.83 2358 579C2356.95 579.687 2355.91 580.374 2354.83 581.082C2319.67 602.643 2271.67 603.507 2232.54 594.408C2207.28 588.018 2182.87 575.6 2168 553.5C2161.82 542.864 2154.18 528.554 2157 516C2164.29 514.425 2171.59 512.859 2178.89 511.3C2181.37 510.769 2183.85 510.235 2186.33 509.7C2189.9 508.929 2193.47 508.167 2197.04 507.406C2198.15 507.166 2199.25 506.925 2200.39 506.677C2201.43 506.457 2202.47 506.237 2203.55 506.01C2204.46 505.814 2205.37 505.619 2206.3 505.418C2209.24 504.963 2212.03 504.93 2215 505C2215.16 505.75 2215.32 506.5 2215.48 507.273C2218.23 519.331 2222.58 529.874 2233.04 537.098C2253.79 550.005 2279.55 553.278 2303.27 547.973C2314.26 545.104 2325.78 540.049 2332 530C2335.52 522.614 2336.41 514.432 2334.34 506.48C2330.81 497.544 2324.29 492.404 2315.71 488.486C2311.82 486.929 2307.93 485.74 2303.89 484.691C2303.08 484.48 2302.27 484.269 2301.44 484.052C2287.81 480.591 2273.96 478.032 2260.17 475.305C2222.09 467.75 2222.09 467.75 2205 459C2204.11 458.573 2203.23 458.147 2202.32 457.707C2185.98 449.436 2173.75 436.473 2168 419C2167.68 418.053 2167.36 417.105 2167.04 416.129C2161.33 395.897 2164.73 373.748 2174.37 355.383C2186.92 333.493 2208.04 319.69 2231.99 312.745C2268.85 302.798 2310.6 306.129 2344 325Z" fill="#00C474"/>
<path d="M1389.3 337.598C1404.13 350.809 1414.56 368.364 1418 388C1406.95 390.863 1395.85 393.39 1384.67 395.72C1382.08 396.26 1379.49 396.805 1376.9 397.352C1375.25 397.698 1373.6 398.045 1371.95 398.391C1370.79 398.634 1370.79 398.634 1369.61 398.883C1364.23 400 1364.23 400 1362 400C1361.77 399.238 1361.54 398.476 1361.3 397.691C1356.6 382.815 1349.51 371.369 1335.52 363.632C1326.71 359.081 1316.92 356.38 1307 356C1305.89 355.948 1304.79 355.897 1303.64 355.844C1289.18 355.484 1273.99 357.293 1262.62 367.039C1256.17 373.761 1252.86 380.79 1252.56 390.125C1252.85 397.78 1254.9 403.181 1260 409C1265.5 413.538 1271.55 416.438 1278.35 418.483C1279.04 418.695 1279.73 418.907 1280.45 419.126C1287.39 421.2 1294.42 422.806 1301.51 424.308C1303.79 424.794 1306.08 425.29 1308.37 425.789C1314.85 427.202 1321.34 428.596 1327.83 429.986C1331.84 430.845 1335.85 431.715 1339.85 432.591C1341.35 432.916 1342.86 433.238 1344.36 433.555C1364.07 437.716 1382.33 443.896 1398 457C1398.99 457.722 1399.98 458.444 1401 459.188C1413.36 469.689 1420.22 486.059 1421.66 501.916C1423.15 522.951 1419.36 544.061 1405.73 560.789C1403.54 563.253 1401.3 565.638 1399 568C1398.22 568.866 1397.43 569.733 1396.62 570.625C1368.23 596.316 1328.67 600.423 1292 599C1261.08 596.94 1226.34 587.922 1204.56 564.359C1194.2 551.619 1186.18 537.555 1184 521C1184.3 519.327 1184.63 517.658 1185 516C1192.29 514.425 1199.59 512.859 1206.89 511.3C1209.37 510.769 1211.85 510.235 1214.33 509.7C1217.9 508.929 1221.47 508.167 1225.04 507.406C1226.15 507.166 1227.25 506.925 1228.39 506.677C1229.43 506.457 1230.47 506.237 1231.55 506.01C1232.46 505.814 1233.37 505.619 1234.3 505.418C1237.24 504.963 1240.03 504.93 1243 505C1243.16 505.75 1243.32 506.5 1243.48 507.273C1246.39 520.044 1251.27 530.999 1262.69 538.188C1284.81 550.483 1310.59 553.372 1335 547C1345.33 543.713 1354.67 538.695 1360.07 528.957C1363.45 521.848 1364.54 513.907 1362.16 506.316C1357.51 496.024 1349.41 490.723 1339.09 486.731C1335.37 485.43 1331.56 484.55 1327.72 483.664C1326.82 483.452 1325.91 483.241 1324.98 483.023C1311.95 480.01 1298.82 477.425 1285.7 474.802C1239.74 465.591 1239.74 465.591 1221 452C1220.07 451.332 1219.15 450.665 1218.2 449.977C1205.04 439.88 1195.7 425.699 1193.23 409.126C1190.73 385.759 1194.78 364.069 1209 345C1209.52 344.294 1210.04 343.587 1210.58 342.859C1228.05 321.154 1256.46 311.388 1283.23 308.469C1321.89 304.965 1359.1 312.313 1389.3 337.598Z" fill="#00C474"/>
<path d="M3297.2 307.922C3335.33 306.708 3369.42 317.98 3399 342C3399.7 342.556 3400.4 343.111 3401.12 343.684C3405.6 347.36 3409.33 351.526 3413 356C3413.76 356.902 3414.53 357.805 3415.31 358.734C3425.26 370.978 3438 389.73 3438 406C3430.67 408.144 3423.34 410.279 3416 412.409C3413.51 413.134 3411.01 413.862 3408.52 414.591C3404.94 415.639 3401.35 416.679 3397.77 417.719C3396.65 418.047 3395.53 418.375 3394.38 418.713C3393.34 419.013 3392.3 419.314 3391.23 419.623C3390.31 419.89 3389.4 420.156 3388.46 420.431C3386 421 3386 421 3382 421C3381.8 420.462 3381.61 419.924 3381.41 419.37C3377.16 407.835 3372.8 397.587 3365 388C3364.46 387.331 3363.92 386.662 3363.37 385.973C3350.35 371.552 3329.43 364.396 3310.58 363.129C3309.73 363.086 3308.88 363.044 3308 363C3307.26 362.947 3306.52 362.894 3305.76 362.84C3283.33 361.949 3261.71 370.297 3245 385C3244.24 385.666 3243.48 386.333 3242.69 387.02C3226.58 402.066 3217.98 424.41 3216.89 446.192C3216.23 472.042 3221.2 497.259 3239 517C3239.59 517.684 3240.18 518.369 3240.79 519.074C3255.52 535.06 3277.96 543.077 3299.28 544.168C3323.03 544.312 3346.13 539.555 3363.64 522.566C3373.07 512.317 3378.89 499.821 3384 487C3395.08 489.562 3406.12 492.253 3417.13 495.092C3419.49 495.7 3421.85 496.304 3424.21 496.908C3425.72 497.297 3427.24 497.685 3428.75 498.074C3429.45 498.253 3430.15 498.433 3430.87 498.617C3435.77 499.885 3435.77 499.885 3438 501C3436.25 519.288 3425.4 536.998 3414 551C3413.39 551.75 3412.78 552.5 3412.16 553.273C3397.48 570.682 3376.31 583.567 3355 591C3354.35 591.228 3353.69 591.456 3353.02 591.691C3314.69 604.733 3272.19 601.139 3235.94 583.688C3202.05 566.313 3176.42 536.695 3164.74 500.535C3162.58 493.161 3161.2 485.583 3160 478C3159.81 476.814 3159.61 475.628 3159.41 474.406C3157.29 456.267 3157.65 435.729 3162 418C3162.29 416.806 3162.29 416.806 3162.59 415.588C3167.01 398.06 3174.2 381.55 3185 367C3185.58 366.201 3186.16 365.402 3186.75 364.578C3211.32 332.169 3246.55 314.309 3286.19 308.535C3289.86 308.154 3293.52 308.053 3297.2 307.922Z" fill="#00C474"/>
<path d="M3492 231C3511.14 231 3530.28 231 3550 231C3550 259.05 3550 287.1 3550 316C3581.02 316 3612.04 316 3644 316C3644 331.84 3644 347.68 3644 364C3612.98 364 3581.96 364 3550 364C3550.12 387.475 3550.12 387.475 3550.26 410.949C3550.32 420.53 3550.38 430.112 3550.42 439.693C3550.45 446.673 3550.49 453.653 3550.54 460.632C3550.57 464.323 3550.59 468.013 3550.6 471.704C3550.62 475.839 3550.65 479.974 3550.68 484.11C3550.68 485.313 3550.69 486.515 3550.69 487.754C3550.84 503.494 3552.63 518.528 3563 531C3572.11 539.653 3583.41 542.839 3595.76 543.07C3610.08 542.594 3622.35 538.351 3634.86 531.504C3636.54 530.601 3638.27 529.792 3640 529C3643 530 3643 530 3644.01 531.846C3644.31 532.652 3644.61 533.458 3644.92 534.289C3645.26 535.2 3645.6 536.111 3645.96 537.05C3646.32 538.041 3646.68 539.033 3647.05 540.055C3647.42 541.067 3647.8 542.08 3648.18 543.123C3648.98 545.268 3649.76 547.415 3650.54 549.564C3651.74 552.86 3652.97 556.147 3654.19 559.434C3654.96 561.515 3655.72 563.597 3656.48 565.68C3656.85 566.667 3657.22 567.655 3657.6 568.672C3657.93 569.59 3658.26 570.507 3658.6 571.453C3658.9 572.26 3659.19 573.068 3659.5 573.9C3660 576 3660 576 3659 579C3656.64 580.409 3654.35 581.631 3651.88 582.812C3651.15 583.163 3650.43 583.513 3649.69 583.874C3617.32 599.366 3582.94 604.444 3548.43 592.533C3527.54 584.825 3511.32 569.737 3501.43 549.848C3493.83 533.209 3491.84 516.459 3491.89 498.301C3491.89 496.831 3491.89 495.362 3491.89 493.893C3491.89 489.928 3491.89 485.964 3491.9 482C3491.9 477.848 3491.91 473.696 3491.91 469.544C3491.91 461.693 3491.92 453.841 3491.93 445.99C3491.94 437.047 3491.94 428.103 3491.95 419.16C3491.96 400.773 3491.98 382.387 3492 364C3472.53 364 3453.06 364 3433 364C3433 348.16 3433 332.32 3433 316C3452.47 316 3471.94 316 3492 316C3492 287.95 3492 259.9 3492 231Z" fill="#00C474"/>
<path d="M4133.31 312.75C4134.66 312.743 4136 312.735 4137.35 312.727C4138.63 312.729 4139.91 312.732 4141.24 312.734C4142.39 312.737 4143.55 312.739 4144.74 312.741C4148.12 313.009 4150.85 313.797 4154 315C4154.25 327.215 4153.45 339.265 4152.5 351.438C4152.35 353.344 4152.21 355.251 4152.07 357.158C4151.72 361.773 4151.36 366.386 4151 371C4150.08 371.015 4149.17 371.029 4148.22 371.044C4144.74 371.106 4141.26 371.18 4137.78 371.262C4136.29 371.295 4134.8 371.323 4133.31 371.346C4107.2 371.761 4082.28 378.328 4063 397C4036.25 426.645 4031.58 464.005 4031.49 502.426C4031.47 504.997 4031.45 507.567 4031.43 510.138C4031.39 516.151 4031.36 522.164 4031.34 528.177C4031.31 535.715 4031.26 543.253 4031.21 550.791C4031.12 564.194 4031.06 577.597 4031 591C4011.53 591 3992.06 591 3972 591C3972 500.25 3972 409.5 3972 316C3991.47 316 4010.94 316 4031 316C4031.33 333.82 4031.66 351.64 4032 370C4034.64 366.37 4037.28 362.74 4040 359C4057.8 336.733 4078.96 321.466 4107 315C4107.77 314.822 4108.54 314.644 4109.33 314.46C4117.33 312.789 4125.16 312.702 4133.31 312.75Z" fill="#00C474"/>
<path d="M1777 192C1796.47 192 1815.94 192 1836 192C1836 323.67 1836 455.34 1836 591C1816.53 591 1797.06 591 1777 591C1777 459.33 1777 327.66 1777 192Z" fill="#00C474"/>
</g>
<defs>
<clipPath id="clip0_1_19">
<rect width="4154" height="905" fill="white"/>
</clipPath>
</defs>
</svg>
